# xmcd
#
# Track frame offsets:
#	225
#	13983
#	28352
#	42077
#	55174
#	68176
#	82835
#	95991
#	110853
#	124201
#	141209
#	154386
#
# Disc length: 2259 seconds
#
# Revision: 1
# Processed by: cddbd v1.5PL3 Copyright (c) Steve Scherf et al.
# Submitted via: audiograbber 1.83.01
#
DISCID=b208d00c
DTITLE=FREI - Da fing der Sommer noch einmal an
DYEAR=2003
DGENRE=Schlager
TTITLE0=Da fing der Sommer noch einmal an
TTITLE1=Sag' die Wahrheit
TTITLE2=Die Glut von Napoli
TTITLE3=Dolce Vita
TTITLE4=Tina
TTITLE5=Ich verzeih dir
TTITLE6=Tausend mal
TTITLE7=San Francisco night
TTITLE8=Engel wie du
TTITLE9=Halt mich fest
TTITLE10=Shine on me
TTITLE11=Das geht vorbei
EXTD=
EXTT0=
EXTT1=
EXTT2=
EXTT3=
EXTT4=
EXTT5=
EXTT6=
EXTT7=
EXTT8=
EXTT9=
EXTT10=
EXTT11=
PLAYORDER=
